<svg width="1200" height="800" xmlns="http://www.w3.org/2000/svg">
  <!-- Background -->
  <rect width="100%" height="100%" fill="#f8f9fa"/>
  
  <!-- Header -->
  <rect width="100%" height="60" fill="#3498db"/>
  <text x="30" y="40" font-family="Arial" font-size="24" fill="white" font-weight="bold">SisVenda</text>
  <text x="1100" y="40" font-family="Arial" font-size="16" fill="white" text-anchor="end">Admin</text>
  
  <!-- Sidebar -->
  <rect x="0" y="60" width="220" height="740" fill="#2c3e50"/>
  <text x="30" y="100" font-family="Arial" font-size="18" fill="#777">Dashboard</text>
  <text x="30" y="140" font-family="Arial" font-size="18" fill="#777">Produtos</text>
  <text x="30" y="180" font-family="Arial" font-size="18" fill="#777">Pedidos</text>
  <text x="30" y="220" font-family="Arial" font-size="18" fill="#777">Clientes</text>
  <rect x="0" y="240" width="220" height="40" fill="#1a2530"/>
  <text x="30" y="265" font-family="Arial" font-size="18" fill="white">Relatórios</text>
  
  <!-- Main Content -->
  <rect x="240" y="80" width="940" height="60" rx="5" fill="#ffffff" stroke="#e0e0e0"/>
  <text x="260" y="120" font-family="Arial" font-size="24" fill="#333">Relatórios e Gráficos</text>
  
  <!-- Filter Controls -->
  <rect x="240" y="160" width="940" height="50" rx="5" fill="#ffffff" stroke="#e0e0e0"/>
  <text x="260" y="190" font-family="Arial" font-size="16" fill="#333">Período:</text>
  <rect x="340" y="170" width="140" height="30" rx="5" fill="#f5f5f5" stroke="#e0e0e0"/>
  <text x="410" y="190" font-family="Arial" font-size="14" fill="#333" text-anchor="middle">Último mês</text>
  
  <rect x="500" y="170" width="120" height="30" rx="5" fill="#3498db"/>
  <text x="560" y="190" font-family="Arial" font-size="14" fill="white" text-anchor="middle">Aplicar</text>
  
  <rect x="640" y="170" width="120" height="30" rx="5" fill="#e0e0e0"/>
  <text x="700" y="190" font-family="Arial" font-size="14" fill="#333" text-anchor="middle">Exportar</text>
  
  <!-- Sales Chart -->
  <rect x="240" y="230" width="620" height="320" rx="5" fill="#ffffff" stroke="#e0e0e0"/>
  <text x="260" y="260" font-family="Arial" font-size="18" fill="#333">Vendas por Período</text>
  
  <!-- Chart Lines -->
  <line x1="260" y1="520" x2="820" y2="520" stroke="#e0e0e0" stroke-width="2"/>
  <line x1="260" y1="280" x2="260" y2="520" stroke="#e0e0e0" stroke-width="2"/>
  
  <!-- Chart Bars -->
  <rect x="290" y="350" width="40" height="170" fill="#3498db"/>
  <rect x="350" y="380" width="40" height="140" fill="#3498db"/>
  <rect x="410" y="300" width="40" height="220" fill="#3498db"/>
  <rect x="470" y="320" width="40" height="200" fill="#3498db"/>
  <rect x="530" y="350" width="40" height="170" fill="#3498db"/>
  <rect x="590" y="280" width="40" height="240" fill="#3498db"/>
  <rect x="650" y="330" width="40" height="190" fill="#3498db"/>
  <rect x="710" y="400" width="40" height="120" fill="#3498db"/>
  <rect x="770" y="370" width="40" height="150" fill="#3498db"/>
  
  <!-- X-Axis Labels -->
  <text x="310" y="540" font-family="Arial" font-size="12" fill="#666" text-anchor="middle">Jan</text>
  <text x="370" y="540" font-family="Arial" font-size="12" fill="#666" text-anchor="middle">Fev</text>
  <text x="430" y="540" font-family="Arial" font-size="12" fill="#666" text-anchor="middle">Mar</text>
  <text x="490" y="540" font-family="Arial" font-size="12" fill="#666" text-anchor="middle">Abr</text>
  <text x="550" y="540" font-family="Arial" font-size="12" fill="#666" text-anchor="middle">Mai</text>
  <text x="610" y="540" font-family="Arial" font-size="12" fill="#666" text-anchor="middle">Jun</text>
  <text x="670" y="540" font-family="Arial" font-size="12" fill="#666" text-anchor="middle">Jul</text>
  <text x="730" y="540" font-family="Arial" font-size="12" fill="#666" text-anchor="middle">Ago</text>
  <text x="790" y="540" font-family="Arial" font-size="12" fill="#666" text-anchor="middle">Set</text>
  
  <!-- Pie Chart -->
  <rect x="880" y="230" width="300" height="320" rx="5" fill="#ffffff" stroke="#e0e0e0"/>
  <text x="900" y="260" font-family="Arial" font-size="18" fill="#333">Vendas por Categoria</text>
  
  <!-- Pie Chart Circle -->
  <circle cx="1030" cy="390" r="100" fill="none" stroke="#e0e0e0"/>
  
  <!-- Pie Chart Segments -->
  <path d="M1030,390 L1030,290 A100,100 0 0,1 1117,350 Z" fill="#3498db"/>
  <path d="M1030,390 L1117,350 A100,100 0 0,1 1080,480 Z" fill="#2ecc71"/>
  <path d="M1030,390 L1080,480 A100,100 0 0,1 950,470 Z" fill="#e74c3c"/>
  <path d="M1030,390 L950,470 A100,100 0 0,1 940,330 Z" fill="#f39c12"/>
  <path d="M1030,390 L940,330 A100,100 0 0,1 1030,290 Z" fill="#9b59b6"/>
  
  <!-- Legend -->
  <rect x="900" y="510" width="12" height="12" fill="#3498db"/>
  <text x="920" y="520" font-family="Arial" font-size="12" fill="#333">Eletrônicos (35%)</text>
  
  <rect x="900" y="530" width="12" height="12" fill="#2ecc71"/>
  <text x="920" y="540" font-family="Arial" font-size="12" fill="#333">Informática (25%)</text>
  
  <rect x="900" y="550" width="12" height="12" fill="#e74c3c"/>
  <text x="920" y="560" font-family="Arial" font-size="12" fill="#333">Celulares (20%)</text>
  
  <rect x="900" y="570" width="12" height="12" fill="#f39c12"/>
  <text x="920" y="580" font-family="Arial" font-size="12" fill="#333">Áudio (15%)</text>
  
  <rect x="900" y="590" width="12" height="12" fill="#9b59b6"/>
  <text x="920" y="600" font-family="Arial" font-size="12" fill="#333">Outros (5%)</text>
  
  <!-- Top Products -->
  <rect x="240" y="570" width="620" height="190" rx="5" fill="#ffffff" stroke="#e0e0e0"/>
  <text x="260" y="600" font-family="Arial" font-size="18" fill="#333">Produtos Mais Vendidos</text>
  
  <!-- Products List -->
  <text x="260" y="630" font-family="Arial" font-size="14" fill="#333">1. Smartphone Samsung Galaxy S22 - 42 unidades</text>
  <text x="260" y="660" font-family="Arial" font-size="14" fill="#333">2. Smart TV LG 55" 4K - 28 unidades</text>
  <text x="260" y="690" font-family="Arial" font-size="14" fill="#333">3. Notebook Dell Inspiron 15 - 23 unidades</text>
  <text x="260" y="720" font-family="Arial" font-size="14" fill="#333">4. Fone de Ouvido JBL T500BT - 19 unidades</text>
  <text x="260" y="750" font-family="Arial" font-size="14" fill="#333">5. Console PlayStation 5 - 15 unidades</text>
  
  <!-- Top Sellers -->
  <rect x="880" y="570" width="300" height="190" rx="5" fill="#ffffff" stroke="#e0e0e0"/>
  <text x="900" y="600" font-family="Arial" font-size="18" fill="#333">Melhores Vendedores</text>
  
  <!-- Sellers List -->
  <text x="900" y="630" font-family="Arial" font-size="14" fill="#333">1. João Silva - R$ 24.750,00</text>
  <text x="900" y="660" font-family="Arial" font-size="14" fill="#333">2. Maria Oliveira - R$ 18.320,00</text>
  <text x="900" y="690" font-family="Arial" font-size="14" fill="#333">3. Carlos Santos - R$ 15.890,00</text>
  <text x="900" y="720" font-family="Arial" font-size="14" fill="#333">4. Ana Pereira - R$ 12.450,00</text>
  <text x="900" y="750" font-family="Arial" font-size="14" fill="#333">5. Lucas Costa - R$ 10.780,00</text>
  
  <!-- Footer -->
  <rect x="0" y="780" width="100%" height="20" fill="#f0f0f0"/>
  <text x="600" y="795" font-family="Arial" font-size="12" fill="#777" text-anchor="middle">SisVenda  2025 - Todos os direitos reservados</text>
</svg>
